<?xml version="1.0" encoding="UTF-8"?>
<svg id="Layer_1" data-name="Layer 1" xmlns="http://www.w3.org/2000/svg" viewBox="0 0 462.07 462.07">
  <defs>
    <style>
      .cls-1 {
        fill: #fff;
      }

      .cls-2 {
        fill: #252546;
      }
    </style>
  </defs>
  <rect class="cls-1" width="462.07" height="462.07" rx="95.21" ry="95.21"/>
  <path class="cls-2" d="M382.58,162.26v-39.45h-37.47c-41.87,0-81.74,14.05-114.07,39.87-32.32-25.82-72.2-39.87-114.07-39.87h-37.47v39.45h37.47c30.25,0,59.16,9.36,83.35,26.66-24.12,17.15-52.91,26.43-83.02,26.43h-37.8v39.45h37.8c17.05,0,33.76-2.37,49.77-6.88-.9,5.34-1.36,10.79-1.36,16.29v92.84h39.45v-92.84c0-17.12,7.42-33.36,20.36-44.56l2.41-2.09c.9-.68,1.8-1.35,2.69-2.05l4.77,4.13c12.94,11.21,20.36,27.45,20.36,44.56v92.84h39.45v-92.84c0-5.62-.5-11.18-1.43-16.63,16.39,4.74,33.53,7.22,51.03,7.22h37.8v-39.45h-37.8c-30.11,0-58.9-9.28-83.02-26.43,24.19-17.3,53.1-26.66,83.35-26.66h37.47Z"/>
</svg>